# xmcd
#
# Track frame offsets: 
#        150
#        12556
#        22623
#        34561
#        45843
#        58607
#        72450
#        84077
#        94414
#        105770
#        118696
#        132274
#        146406
#        158511
#        169122
#        182497
#        194954
#        209209
#        220630
#        231682
#
# Disc length: 3213 seconds
#
# Revision: 0
# Processed by: cddbd v1.5.2PL0 Copyright (c) Steve Scherf et al.
# Submitted via: ExactAudioCopy v0.99pb5
#
DISCID=100c8b14
DTITLE=Lefty Frizzell - Country Music Legends [CD2]
DYEAR=2007
DGENRE=Country
TTITLE0=Lullaby Yodel
TTITLE1=The Brakeman's Blues
TTITLE2=My Rough And Rowdy Ways
TTITLE3=If You Can Spare The Time (I Won't Miss The Money)
TTITLE4=It's Just You (I Could Love Always)
TTITLE5=(Darling Now) You're Here So Everything's Alright
TTITLE6=A King Without A Queen
TTITLE7=My Baby's Just Like Money
TTITLE8=I Know You're Lonesome (While Waiting For Me)
TTITLE9=You're Just Mine (Only In My Dreams)
TTITLE10=California Blues (Blue Yodel No. 4)
TTITLE11=Never No Mo' Blues
TTITLE12=We Crucified Our Jesus
TTITLE13=When It Comes To Measuring Love
TTITLE14=Sleep Baby Sleep
TTITLE15=Two Friends Of Mine In Love
TTITLE16=Making Believe
TTITLE17=Sweet Lies
TTITLE18=Heart's Highway
TTITLE19=Just Can't Live That Fast (Anymore)
EXTD=
EXTT0=
EXTT1=
EXTT2=
EXTT3=
EXTT4=
EXTT5=
EXTT6=
EXTT7=
EXTT8=
EXTT9=
EXTT10=
EXTT11=
EXTT12=
EXTT13=
EXTT14=
EXTT15=
EXTT16=
EXTT17=
EXTT18=
EXTT19=
PLAYORDER=
